<?xml version="1.0" encoding="UTF-8" standalone="no"?><!DOCTYPE svg PUBLIC "-//W3C//DTD SVG 1.1//EN" "http://www.w3.org/Graphics/SVG/1.1/DTD/svg11.dtd"><svg width="100%" height="100%" viewBox="0 0 2134 2134" version="1.1" xmlns="http://www.w3.org/2000/svg" xmlns:xlink="http://www.w3.org/1999/xlink" xml:space="preserve" xmlns:serif="http://www.serif.com/" style="fill-rule:evenodd;clip-rule:evenodd;stroke-linejoin:round;stroke-miterlimit:2;"><g><path d="M1066.67,0c-589.098,0 -1066.67,477.569 -1066.67,1066.67c0,589.097 477.569,1066.67 1066.67,1066.67c589.097,0 1066.67,-477.569 1066.67,-1066.67c-0.659,-588.82 -477.847,-1066.01 -1066.67,-1066.67Zm-0,2008.09c-519.932,-0 -941.427,-421.495 -941.427,-941.426c0,-519.932 421.495,-941.427 941.427,-941.427c519.931,0 941.426,421.495 941.426,941.427c-0.591,519.685 -421.741,940.835 -941.426,941.426Z" style="fill:#5f30e2;fill-rule:nonzero;"/><path d="M1493.33,1457.78l-566.371,-0l496.007,-496.007l50.278,-50.261c68.906,-69.513 68.663,-181.666 -0.556,-250.868c-69.201,-69.218 -181.354,-69.461 -250.868,-0.555l-50.261,50.278l-502.829,502.829l-0.33,0.417c-2.847,3.021 -5.156,6.511 -6.823,10.313c-0.417,1.007 -0.712,1.961 -1.059,2.951c-0.573,1.337 -1.059,2.708 -1.459,4.097l-53.871,255c-0.347,2.014 -0.503,4.045 -0.503,6.077c-0,0.468 -0.244,0.816 -0.244,1.284l0,0.539c0.105,4.114 0.921,8.177 2.414,12.013c0.364,0.886 0.711,1.702 1.145,2.553c1.632,3.68 3.907,7.048 6.685,9.965c6.701,6.736 15.815,10.521 25.312,10.486l853.333,-0c19.636,-0 35.556,-15.92 35.556,-35.556c-0,-19.635 -15.92,-35.555 -35.556,-35.555Zm-669.861,-39.531l-137.257,28.871l29.028,-137.396l54.184,54.184l54.045,54.341Zm448.629,-707.882c42.239,-40.243 108.628,-40.243 150.868,-0c41.666,41.649 41.666,109.201 -0,150.868l-25.174,25.139l-150.833,-150.834l25.139,-25.173Zm-75.4,75.416l75.4,75.417l75.451,75.434l-452.587,452.552l-75.416,-75.399l-75.4,-75.452l452.552,-452.552Z" style="fill:#5f30e2;fill-rule:nonzero;"/></g></svg>